<mxfile host="app.diagrams.net" modified="2023-01-09T02:00:40.706Z" agent="5.0 (Windows NT 10.0; Win64; x64) AppleWebKit/537.36 (KHTML, like Gecko) Chrome/108.0.0.0 Safari/537.36 Edg/108.0.1462.54" version="20.8.3" etag="sEFalJdEhpNFJRkE0ooO" type="github">
  <diagram id="qw0AgnKNkEwFAxMyC1nQ" name="第 1 页">
    <mxGraphModel dx="1050" dy="3030" grid="1" gridSize="10" guides="1" tooltips="1" connect="1" arrows="1" fold="1" page="1" pageScale="1" pageWidth="1169" pageHeight="827" math="0" shadow="0">
      <root>
        <mxCell id="0" />
        <mxCell id="1" parent="0" />
        <mxCell id="-4q7IllbPXgCUAF9q_pV-6" value="send To" style="rounded=0;orthogonalLoop=1;jettySize=auto;html=1;strokeColor=#000000;strokeWidth=2;fontFamily=Georgia;fontSize=16;startArrow=none;startFill=0;exitX=1;exitY=0.5;exitDx=0;exitDy=0;labelPosition=center;verticalLabelPosition=top;align=center;verticalAlign=bottom;fontStyle=0;shadow=0;labelBorderColor=default;labelBackgroundColor=#FFF2CC;" edge="1" parent="1" source="-4q7IllbPXgCUAF9q_pV-2" target="-4q7IllbPXgCUAF9q_pV-3">
          <mxGeometry relative="1" as="geometry">
            <mxPoint x="420" y="-2117" as="sourcePoint" />
            <mxPoint as="offset" />
          </mxGeometry>
        </mxCell>
        <mxCell id="-4q7IllbPXgCUAF9q_pV-2" value="&lt;font style=&quot;font-size: 16px;&quot; face=&quot;Georgia&quot;&gt;UserDetailsService.java&lt;/font&gt;" style="rounded=1;whiteSpace=wrap;html=1;strokeWidth=2;fillWeight=4;hachureGap=8;hachureAngle=45;fillColor=#fff2cc;strokeColor=#d6b656;sketch=1;curveFitting=1;jiggle=2;" vertex="1" parent="1">
          <mxGeometry x="150" y="-2167" width="200" height="100" as="geometry" />
        </mxCell>
        <mxCell id="-4q7IllbPXgCUAF9q_pV-3" value="LoadByUsername.java" style="rounded=1;whiteSpace=wrap;html=1;fontFamily=Georgia;fontSize=16;fillColor=#fff2cc;strokeColor=#d6b656;glass=0;shadow=0;gradientColor=none;sketch=1;curveFitting=1;jiggle=2;" vertex="1" parent="1">
          <mxGeometry x="600" y="-2167" width="200" height="100" as="geometry" />
        </mxCell>
      </root>
    </mxGraphModel>
  </diagram>
</mxfile>
